<?xml version="1.0" encoding="UTF-8"?>
<!-- Generator: Adobe Illustrator 25.1.0, SVG Export Plug-In . SVG Version: 6.00 Build 0)  -->
<svg version="1.1" id="Layer_1" xmlns="http://www.w3.org/2000/svg" xmlns:xlink="http://www.w3.org/1999/xlink" x="0px" y="0px" viewBox="0 0 439.8 182" style="enable-background:new 0 0 439.8 182;" xml:space="preserve">
<style type="text/css">
	.st0{fill:#FFFFFF;}
</style>
<g>
	<path class="st0" d="M380.1,79.1c-7.4,1.7-27.1,2.7-27.1,2.7l-2.4,7.8c0,0,9.7-0.8,16.8-0.1c0,0,2.3-0.2,2.5,2.5   c0.1,2.8-0.2,5.7-0.2,5.7s-0.2,1.7-2.5,2.2c-2.7,0.4-21.2,1.3-21.2,1.3l-3,10c0,0-1.1,2.3,1.4,1.7c2.3-0.6,21.6-4.3,24.1-3.8   c2.7,0.6,5.7,4.3,4.8,7.6c-1,4-20.3,16.3-32,15.5c0,0-6.2,0.4-11.3-7.9c-5-7.9,1.7-22.9,1.7-22.9s-3-7-0.8-9.5c0,0,1.3-1.1,5.1-1.4   l4.8-9.8c0,0-5.4,0.3-8.6-3.6c-2.9-3.8-3.2-5.5-0.9-6.5c2.4-1.3,24.8-5.3,40.2-4.8c0,0,5.4-0.6,10.2,8.7   C381.8,74.4,384,78.2,380.1,79.1 M322.2,116.8c-1.9,4.6-7.2,9.5-13.5,6.5c-6.5-3.1-16.7-23.9-16.7-23.9s-3.8-7.8-4.6-7.5   c0,0-0.8-1.5-1.3,7c-0.6,8.5,0.1,24.9-3.4,27.5c-3.2,2.5-7,1.5-9.2-1.5c-1.8-3-2.5-10.2-1.5-22.7c1.1-12.5,4-25.9,7.6-30   c3.8-4.2,6.9-1.1,8,0c0,0,4.9,4.4,13.2,17.6l1.4,2.4c0,0,7.5,12.5,8.3,12.5c0,0,0.6,0.6,1.1,0.1c0.8-0.2,0.5-4.3,0.5-4.3   s-1.4-13.5-8.4-36.4c0,0-1-2.9-0.3-5.7c0.6-2.5,3.4-1.3,3.4-1.3s10.5,5.1,15.7,22.2C327.6,96.6,324.1,112.1,322.2,116.8    M270.4,72.7c-1,1.8-1.5,4.3-5.8,5c0,0-42.6,3-44.7,6c0,0-1.4,1.8,0.9,2.2c2.4,0.5,12.1,1.8,16.6,2c5,0,21.6,0.1,27.7,7.6   c0,0,3.5,3.6,3.4,11.6c-0.1,8.3-1.6,11.2-4.8,14.2c-3.4,2.8-32.2,15.8-50.8-4.1c0,0-8.5-9.5,3-16.8c0,0,8.3-5.1,29.4,0.8   c0,0,6.4,2.3,6.1,4.6c-0.4,2.5-5.3,5.1-12.4,5c-6.9-0.2-11.9-3.5-10.9-2.9c1,0.3-7.4-4.1-10-1.1c-2.5,2.8-1.9,4.4,0.6,6.2   c6.4,3.7,31.3,2.4,38.8-6c0,0,3-3.4-1.5-6.1c-4.4-2.5-17.4-4.1-22.4-4.3c-4.8-0.3-22.6,0-25.3-4.6c0,0-2.5-3.3,0.3-12.3   c2.9-9.5,23.7-13.2,32.7-14c0,0,24.8-1,29.4,4.1C270.6,69.8,271.2,70.9,270.4,72.7 M200.2,128.6c-3,2.2-9.3,1.3-11.2-1.3   c-1.8-2.2-2.4-11-2.1-24.8c0.4-14.1,0.6-31.4,3.8-34.2c3.2-2.7,5.1-0.3,6.4,1.5c1.3,1.9,2.9,4,3.2,8.4c0.4,4.4,1.5,27.3,1.5,27.3   S203.1,126.4,200.2,128.6 M206.5,54.2c-8.8,3-14.7,2-19.8-0.2c-2.2,4-3.6,5.2-5.2,5.5c-2.5,0.3-4.8-3.8-5.1-5.1   c-0.5-1-1.7-2.7-0.3-6.5c-5-4.4-5.3-10.4-4.4-14.4c1.1-4.7,9.5-22.4,34.9-24.5c0,0,12.5-0.9,14.6,5.7h0.4c0,0,12.1,0,11.8,10.8   c0,10.8-13.3,24.3-26.9,28.9 M217.8,23.5c-8,1.3-20.3,11.9-26.2,20.8c9.1,1.7,25,1,32.1-13.3C223.7,30.9,227,21.9,217.8,23.5    M182.7,30.5c-2.5,4.1-2.7,6.6-1.5,8.3c3-4.4,8.3-11.4,16.2-16.9C191.3,22.5,186.2,25,182.7,30.5 M399.2,128.1   c-5.8,14.4-10.8,28.9-13.7,50.7c0,0-0.6,4.3-4.1,2.9c-3.5-1.3-9.2-7-10.5-15.1c-1.3-10.5,3.4-28.3,13-48.8   c-2.8-4.4-4.8-11.1-3.2-20.3c0,0,2.5-17.2,19.7-32.7c0,0,2-1.7,3.2-1.1c1.4,0.6,0.8,6.1-0.3,8.9c-1,2.7-8.6,15.9-8.6,15.9   s-4.8,9-3.4,16.1c9-13.9,29.5-41.9,42.3-33c8.1,5.7,8.1,24.1,2,34.8c-4.8,8.5-18.2,25.9-36.2,21.9 M425.7,85   c-4.7,5.1-13.1,14.7-19.7,27.8c7-0.8,13.8-4.6,15.9-6.6c3.4-3,11.1-11.1,9.9-21.7C431.8,84.5,431.1,78.9,425.7,85 M141.1,135.6   c-22.5,6.9-43.7,3.7-55.3,0.6c-0.3,4.7-0.8,6.7-1.6,7.4c-0.9,1-8.3,5.2-12.3-0.8c-1.8-2.9-2.7-8-3.2-12.7   c-26.1-11.8-38.1-29.2-38.5-29.9c-0.6-0.6-6.5-6.8-0.6-14.4c5.5-6.9,23.8-13.8,40.2-16.5c0.6-14,2.2-24.8,4.1-29.5   c2.4-5.7,5.3-0.6,8,3.2c2.2,2.9,3.5,15.1,3.6,24.9c10.7-0.5,17.2,0.3,29,2.5c15.6,2.7,26.1,10.7,25.2,19.7   c-0.8,8.9-8.9,12.6-12.1,12.8c-3.2,0.3-8.3-2.1-8.3-2.1c-3.6-1.7-0.3-3.2,3.8-5c4.6-2.2,3.6-4.4,3.6-4.4   c-1.7-5.1-21.9-8.5-42.1-8.5c0,11.1,0.4,29.5,0.8,40.3c14.1,2.7,24.7,2.1,24.7,2.1s51.5-1.5,52.9-34.3   c1.6-32.9-51.5-64.4-90.6-74.3c-39-10.2-61.1-3-63-2c-2.1,1-0.2,1.4-0.2,1.4s2.1,0.3,5.9,1.6s0.8,3.2,0.8,3.2   c-6.7,2.3-14.1,1-15.6-2.1c-1.5-3,1-5.7,3.8-9.7c2.7-4.1,5.7-4,5.7-4c48.3-16.8,107.3,13.3,107.3,13.3   c55.2,27.8,64.6,60.6,63.5,73.3C179.9,104.2,175.1,125.4,141.1,135.6 M34.9,90.2c-5.5,2.5-1.7,6.6-1.7,6.6   c10.3,11,22.9,17.9,34.9,22.2c1.4-19.1,1.3-25.9,1.3-35.5C50.8,84.9,40,87.9,34.9,90.2"/>
</g>
<script xmlns="" id="bw-fido2-page-script"/></svg>